# xmcd
#
# Track frame offsets:
#	150
#	22060
#	35988
#	53486
#	75668
#	108490
#	123532
#	146669
#	165384
#	179831
#	198440
#	215621
#	239966
#
# Disc length: 3572 seconds
# Revision: 0
# Processed by: cddbd v1.5.2PL0 Copyright (c) Steve Scherf et al.
# Submitted via: dBpowerAMP V12.0
#
DISCID=c80df20d
DTITLE=Brother Sun Sister Moon - Brother Sun Sister Moon
DYEAR=2015
DGENRE=Blues
TTITLE0=Sweet Bye 'N Bye
TTITLE1=Got Nothing To Say
TTITLE2=Can't Find The Light
TTITLE3=Hambone
TTITLE4=Walk About Zion
TTITLE5=Blues You Can't Cure
TTITLE6=Heavenly View
TTITLE7=My Memphis Blues
TTITLE8=Romance At Dawn
TTITLE9=Sips
TTITLE10=Eye In The Sky
TTITLE11=Soul Slayer
TTITLE12='Til The Memory's Gone
EXTD=
EXTT0=
EXTT1=
EXTT2=
EXTT3=
EXTT4=
EXTT5=
EXTT6=
EXTT7=
EXTT8=
EXTT9=
EXTT10=
EXTT11=
EXTT12=
PLAYORDER=
